<svg width="69" height="134" viewBox="0 0 69 134" fill="none" xmlns="http://www.w3.org/2000/svg">
<path d="M25.1659 81.2045C24.2313 81.4715 23.3411 81.6051 22.4955 81.6051C21.6498 81.6496 20.782 81.6941 19.8918 81.7386C19.0462 81.7831 17.8668 81.8054 16.3535 81.8054C14.8403 81.8054 12.5704 81.7608 9.54394 81.6718C8.83183 81.7163 8.11972 81.7386 7.4076 81.7386C6.69549 81.7386 6.02789 81.6051 5.40479 81.338C4.02507 80.7594 3.09042 79.4242 2.60084 77.3324C2.37831 76.3532 2.13352 75.6634 1.86648 75.2628C1.55493 74.8623 1.31014 74.4839 1.13211 74.1279C0.687043 73.4158 0.73155 72.2363 1.26563 70.5896C1.75521 68.9428 2.40056 66.9178 3.20169 64.5144C4.00282 62.0665 4.91521 59.4851 5.93887 56.7702C8.34225 50.3166 10.5008 45.1983 12.4146 41.4152C13.1713 39.724 13.8166 38.2552 14.3507 37.009C14.9293 35.7628 15.4411 34.6947 15.8862 33.8045C16.3313 32.8699 16.5538 32.3803 16.5538 32.3358C16.9989 30.6445 18.7124 29.2203 21.6944 28.0631C24.5873 26.8614 27.2132 26.5499 29.5721 27.1285C32.198 27.7961 33.3552 29.5319 33.0436 32.3358C32.4205 35.0952 31.4859 37.8547 30.2397 40.6141C29.038 43.3735 27.6583 46.2665 26.1006 49.293C24.5428 52.3194 22.8515 55.524 21.0268 58.9065C19.202 62.289 17.3994 65.9609 15.6191 69.922C15.5746 70.1 15.6637 70.2558 15.8862 70.3893C16.4648 70.3448 17.2659 70.1668 18.2896 69.8552C19.3577 69.5437 20.4482 69.2766 21.5608 69.0541C22.718 68.787 23.8529 68.6535 24.9656 68.6535C26.0783 68.6535 27.0129 68.9428 27.7696 69.5214C27.7251 70.3225 27.9253 70.9679 28.3704 71.4575C28.8155 71.9025 29.2606 72.3476 29.7056 72.7927C30.8183 73.9499 30.9073 75.4854 29.9727 77.3992C29.0825 79.2685 27.4803 80.5369 25.1659 81.2045Z" fill="white"/>
<mask id="path-2-outside-1_2_212" maskUnits="userSpaceOnUse" x="20" y="41" width="50" height="71" fill="black">
<rect fill="white" x="20" y="41" width="50" height="71"/>
<path d="M31.3963 74.3234C30.5089 66.7542 30.1434 60.5944 30.3001 55.844C30.1956 53.5994 31.1092 51.4591 33.0406 49.4232C34.8677 47.4918 36.7731 46.4216 38.7567 46.2128C40.9492 46.0562 42.3586 47.283 42.985 49.893C43.4027 51.3547 43.9247 53.0512 44.5511 54.9827C45.1775 56.9142 45.7778 58.95 46.352 61.0903C46.9263 60.3073 47.8398 58.9239 49.0926 56.9403C50.3455 54.9566 51.52 53.1817 52.6162 51.6157C55.2785 47.805 57.6276 45.1427 59.6634 43.6289C61.6471 42.8458 63.3437 42.637 64.7531 43.0024C66.2147 43.3156 67.2588 43.8377 67.8852 44.5685C68.5638 45.2993 68.8248 46.3694 68.6682 47.7789C68.5638 51.0676 66.0581 56.2355 61.1512 63.2828C60.0028 64.901 58.8282 66.7803 57.6276 68.9205C56.4792 71.0608 55.1219 73.4621 53.5559 76.1244C52.042 78.7344 50.5804 81.3445 49.1709 83.9546C45.9344 89.8534 43.4027 95.465 41.5756 100.79C41.6278 100.685 41.8366 100.816 42.202 101.181C42.5674 101.494 42.9067 101.964 43.2199 102.591C44.0552 104.157 43.9769 105.462 42.985 106.506C40.4794 109.116 37.3734 110.577 33.6671 110.891C30.274 111.152 27.3507 110.525 24.8972 109.011C22.4437 107.602 21.6346 105.853 22.4698 103.765H22.2349C23.3833 100.79 24.6884 97.9968 26.15 95.3867C27.6117 92.7245 29.1255 89.9839 30.6916 87.165L34.2152 80.9008C33.3277 81.1096 32.5969 80.4832 32.0227 79.0215C31.6051 77.8209 31.3963 76.2549 31.3963 74.3234Z"/>
</mask>
<path d="M31.3963 74.3234C30.5089 66.7542 30.1434 60.5944 30.3001 55.844C30.1956 53.5994 31.1092 51.4591 33.0406 49.4232C34.8677 47.4918 36.7731 46.4216 38.7567 46.2128C40.9492 46.0562 42.3586 47.283 42.985 49.893C43.4027 51.3547 43.9247 53.0512 44.5511 54.9827C45.1775 56.9142 45.7778 58.95 46.352 61.0903C46.9263 60.3073 47.8398 58.9239 49.0926 56.9403C50.3455 54.9566 51.52 53.1817 52.6162 51.6157C55.2785 47.805 57.6276 45.1427 59.6634 43.6289C61.6471 42.8458 63.3437 42.637 64.7531 43.0024C66.2147 43.3156 67.2588 43.8377 67.8852 44.5685C68.5638 45.2993 68.8248 46.3694 68.6682 47.7789C68.5638 51.0676 66.0581 56.2355 61.1512 63.2828C60.0028 64.901 58.8282 66.7803 57.6276 68.9205C56.4792 71.0608 55.1219 73.4621 53.5559 76.1244C52.042 78.7344 50.5804 81.3445 49.1709 83.9546C45.9344 89.8534 43.4027 95.465 41.5756 100.79C41.6278 100.685 41.8366 100.816 42.202 101.181C42.5674 101.494 42.9067 101.964 43.2199 102.591C44.0552 104.157 43.9769 105.462 42.985 106.506C40.4794 109.116 37.3734 110.577 33.6671 110.891C30.274 111.152 27.3507 110.525 24.8972 109.011C22.4437 107.602 21.6346 105.853 22.4698 103.765H22.2349C23.3833 100.79 24.6884 97.9968 26.15 95.3867C27.6117 92.7245 29.1255 89.9839 30.6916 87.165L34.2152 80.9008C33.3277 81.1096 32.5969 80.4832 32.0227 79.0215C31.6051 77.8209 31.3963 76.2549 31.3963 74.3234Z" fill="white" fill-opacity="0.04"/>
<path d="M31.3963 74.3234H32.3963V74.265L32.3895 74.207L31.3963 74.3234ZM30.3001 55.844L31.2995 55.877L31.3008 55.8373L31.299 55.7976L30.3001 55.844ZM33.0406 49.4232L33.7661 50.1115L33.7671 50.1104L33.0406 49.4232ZM38.7567 46.2128L38.6855 45.2154L38.6687 45.2166L38.652 45.2183L38.7567 46.2128ZM42.985 49.8931L42.0127 50.1264L42.0176 50.1472L42.0235 50.1678L42.985 49.8931ZM46.352 61.0903L45.3862 61.3494L45.9262 63.362L47.1584 61.6817L46.352 61.0903ZM49.0926 56.9403L49.9381 57.4743H49.9381L49.0926 56.9403ZM52.6162 51.6157L53.4355 52.1892L53.436 52.1884L52.6162 51.6157ZM59.6634 43.6289L59.2963 42.6987L59.1731 42.7473L59.0667 42.8264L59.6634 43.6289ZM64.7531 43.0024L64.5021 43.9704L64.5228 43.9758L64.5436 43.9802L64.7531 43.0024ZM67.8852 44.5685L67.1259 45.2193L67.1389 45.2344L67.1524 45.2489L67.8852 44.5685ZM68.6682 47.7789L67.6743 47.6685L67.67 47.7077L67.6687 47.7472L68.6682 47.7789ZM61.1512 63.2828L61.9667 63.8615L61.9718 63.8542L61.1512 63.2828ZM57.6276 68.9205L56.7554 68.4313L56.7509 68.4395L56.7464 68.4477L57.6276 68.9205ZM53.5559 76.1244L52.6939 75.6173L52.6908 75.6226L53.5559 76.1244ZM49.1709 83.9546L50.0477 84.4356L50.0508 84.4297L49.1709 83.9546ZM41.5756 100.79L40.6297 100.465L42.47 101.237L41.5756 100.79ZM42.202 101.181L41.4949 101.888L41.5221 101.915L41.5512 101.94L42.202 101.181ZM43.2199 102.591L42.3255 103.038L42.3314 103.05L42.3376 103.061L43.2199 102.591ZM42.985 106.506L43.7064 107.198L43.71 107.194L42.985 106.506ZM33.6671 110.891L33.7438 111.888L33.7513 111.887L33.6671 110.891ZM24.8972 109.011L25.4223 108.16L25.4089 108.152L25.3953 108.144L24.8972 109.011ZM22.4698 103.765L23.3983 104.136L23.9468 102.765H22.4698V103.765ZM22.2349 103.765L21.302 103.405L20.777 104.765H22.2349V103.765ZM26.15 95.3867L27.0226 95.8754L27.0266 95.868L26.15 95.3867ZM30.6916 87.165L29.82 86.6747L29.8174 86.6793L30.6916 87.165ZM34.2152 80.9008L35.0867 81.3911L36.2035 79.4056L33.9861 79.9274L34.2152 80.9008ZM32.0227 79.0215L31.0782 79.3501L31.0847 79.3688L31.092 79.3872L32.0227 79.0215ZM32.3895 74.207C31.5049 66.6615 31.1452 60.5569 31.2995 55.877L29.3006 55.8111C29.1417 60.6318 29.5129 66.8468 30.4031 74.4398L32.3895 74.207ZM31.299 55.7976C31.2102 53.8892 31.9724 52.0021 33.7661 50.1115L32.3152 48.735C30.2459 50.9161 29.1811 53.3095 29.3011 55.8905L31.299 55.7976ZM33.7671 50.1104C35.4853 48.294 37.1842 47.3839 38.8614 47.2073L38.652 45.2183C36.3619 45.4594 34.25 46.6895 32.3142 48.736L33.7671 50.1104ZM38.828 47.2103C39.7093 47.1473 40.3327 47.3616 40.8016 47.7697C41.2944 48.1987 41.7276 48.9388 42.0127 50.1264L43.9574 49.6597C43.616 48.2372 43.0313 47.0589 42.1147 46.2611C41.1742 45.4426 39.9966 45.1217 38.6855 45.2154L38.828 47.2103ZM42.0235 50.1678C42.4452 51.6438 42.9709 53.352 43.5999 55.2912L45.5023 54.6742C44.8784 52.7505 44.3601 51.0656 43.9466 49.6183L42.0235 50.1678ZM43.5999 55.2912C44.2205 57.2049 44.816 59.2243 45.3862 61.3494L47.3179 60.8312C46.7396 58.6758 46.1345 56.6234 45.5023 54.6742L43.5999 55.2912ZM47.1584 61.6817C47.7554 60.8677 48.6853 59.4579 49.9381 57.4743L48.2471 56.4063C46.9943 58.39 46.0972 59.7468 45.5456 60.4989L47.1584 61.6817ZM49.9381 57.4743C51.1843 55.5011 52.35 53.7398 53.4355 52.1892L51.797 51.0422C50.6899 52.6237 49.5066 54.4121 48.2471 56.4063L49.9381 57.4743ZM53.436 52.1884C56.079 48.4053 58.3545 45.8483 60.2602 44.4313L59.0667 42.8264C56.9006 44.4371 54.478 47.2047 51.7965 51.043L53.436 52.1884ZM60.0306 44.559C61.9049 43.8192 63.3729 43.6777 64.5021 43.9704L65.0041 42.0344C63.3144 41.5964 61.3893 41.8725 59.2963 42.6987L60.0306 44.559ZM64.5436 43.9802C65.9023 44.2714 66.7016 44.7242 67.1259 45.2193L68.6445 43.9177C67.816 42.9511 66.5272 42.3599 64.9626 42.0246L64.5436 43.9802ZM67.1524 45.2489C67.5607 45.6886 67.8128 46.422 67.6743 47.6685L69.6621 47.8893C69.8368 46.3168 69.567 44.91 68.618 43.888L67.1524 45.2489ZM67.6687 47.7472C67.6231 49.1832 67.0414 51.147 65.8108 53.6851C64.589 56.2051 62.7672 59.2118 60.3305 62.7113L61.9718 63.8542C64.4421 60.3065 66.3266 57.2056 67.6105 54.5577C68.8856 51.9278 69.6089 49.6633 69.6677 47.8106L67.6687 47.7472ZM60.3357 62.704C59.1627 64.3569 57.9695 66.2671 56.7554 68.4313L58.4997 69.4098C59.6869 67.2934 60.8428 65.4452 61.9667 63.8615L60.3357 62.704ZM56.7464 68.4477C55.6056 70.5739 54.255 72.9635 52.6939 75.6173L54.4178 76.6314C55.9888 73.9607 57.3527 71.5477 58.5087 69.3933L56.7464 68.4477ZM52.6908 75.6226C51.172 78.2413 49.7054 80.8603 48.291 83.4794L50.0508 84.4297C51.4554 81.8287 52.9121 79.2275 54.4209 76.6261L52.6908 75.6226ZM48.2942 83.4736C45.0354 89.4131 42.4785 95.0772 40.6297 100.465L42.5215 101.114C44.3268 95.8529 46.8335 90.2937 50.0476 84.4356L48.2942 83.4736ZM42.47 101.237C42.3942 101.388 42.2588 101.551 42.0497 101.656C41.8502 101.756 41.6636 101.762 41.5446 101.75C41.4297 101.739 41.3477 101.708 41.3108 101.692C41.2703 101.675 41.2461 101.66 41.2414 101.657C41.2335 101.652 41.2524 101.664 41.3037 101.708C41.3518 101.749 41.4151 101.808 41.4949 101.888L42.9091 100.474C42.718 100.283 42.5077 100.09 42.3014 99.9612C42.2139 99.9065 42.0112 99.7871 41.7436 99.7603C41.592 99.7451 41.3777 99.7559 41.1553 99.867C40.9234 99.983 40.77 100.165 40.6812 100.342L42.47 101.237ZM41.5512 101.94C41.7804 102.137 42.047 102.481 42.3255 103.038L44.1144 102.143C43.7664 101.447 43.3545 100.852 42.8528 100.422L41.5512 101.94ZM42.3376 103.061C42.6984 103.738 42.8143 104.27 42.7894 104.684C42.7659 105.077 42.6113 105.447 42.26 105.817L43.71 107.194C44.3506 106.52 44.7311 105.716 44.7858 104.804C44.8393 103.912 44.5767 103.01 44.1023 102.12L42.3376 103.061ZM42.2637 105.813C39.9315 108.243 37.0543 109.601 33.5828 109.894L33.7513 111.887C37.6924 111.554 41.0273 109.989 43.7064 107.198L42.2637 105.813ZM33.5904 109.894C30.369 110.141 27.6649 109.544 25.4223 108.16L24.3721 109.862C27.0365 111.506 30.1789 112.162 33.7438 111.888L33.5904 109.894ZM25.3953 108.144C24.268 107.497 23.6434 106.84 23.3578 106.223C23.0882 105.64 23.0642 104.972 23.3983 104.136L21.5413 103.394C21.0402 104.647 21.0031 105.896 21.5427 107.063C22.0662 108.194 23.0729 109.117 24.3991 109.878L25.3953 108.144ZM22.4698 102.765H22.2349V104.765H22.4698V102.765ZM23.1678 104.125C24.3003 101.191 25.5855 98.4414 27.0225 95.8753L25.2775 94.8981C23.7913 97.5522 22.4664 100.388 21.302 103.405L23.1678 104.125ZM27.0266 95.868C28.4874 93.2073 30.0004 90.4681 31.5657 87.6506L29.8174 86.6793C28.2506 89.4996 26.7359 92.2416 25.2734 94.9055L27.0266 95.868ZM31.5631 87.6553L35.0867 81.3911L33.3436 80.4105L29.82 86.6747L31.5631 87.6553ZM33.9861 79.9274C33.8729 79.954 33.7913 79.9474 33.6523 79.8283C33.4657 79.6684 33.2144 79.32 32.9535 78.6559L31.092 79.3872C31.4053 80.1847 31.8065 80.8804 32.3507 81.3468C32.9425 81.8541 33.6701 82.0564 34.4442 81.8742L33.9861 79.9274ZM32.9672 78.693C32.6002 77.6379 32.3963 76.1949 32.3963 74.3234H30.3963C30.3963 76.3148 30.61 78.0039 31.0782 79.3501L32.9672 78.693Z" fill="white" mask="url(#path-2-outside-1_2_212)"/>
</svg>
